<svg width="310.924" height="512" xmlns="http://www.w3.org/2000/svg">

 <g>
  <title>background</title>
  <rect fill="none" id="canvas_background" height="402" width="582" y="-1" x="-1"/>
 </g>
 <g>
  <title>Layer 1</title>
  <path fill="#f56565" id="svg_2" d="m170.928489,-1l-3.432,0l0,59.83c32.418,5.307 57.024,30.758 57.024,61.567l0,80.935c0,34.643 -31.035,62.729 -69.369,62.729c-38.314,0 -69.35,-28.088 -69.35,-62.729l0,-80.935c0,-29.353 22.393,-53.799 52.504,-60.623l0,-60.751c-76.637,0.592 -138.606,62.832 -138.606,139.672l0,232.601c0,77.147 62.527,139.704 139.705,139.704l31.522,0c77.146,0 139.695,-62.558 139.695,-139.705l0,-232.6c0.003,-77.207 -62.548,-139.695 -139.693,-139.695z"/>
  <path fill="#f56565" id="svg_3" d="m113.388,133.477l0,54.779c0,23.434 19.006,42.41 42.41,42.41c23.434,0 42.441,-18.978 42.441,-42.41l0,-54.779c0,-23.434 -19.008,-42.43 -42.441,-42.43c-23.404,0 -42.41,18.996 -42.41,42.43z"/>
 </g>
</svg>